<?xml version="1.0" encoding="UTF-8" standalone="no"?>
<!-- Created with Inkscape (http://www.inkscape.org/) -->

<svg
   xmlns:dc="http://purl.org/dc/elements/1.1/"
   xmlns:cc="http://creativecommons.org/ns#"
   xmlns:rdf="http://www.w3.org/1999/02/22-rdf-syntax-ns#"
   xmlns:svg="http://www.w3.org/2000/svg"
   xmlns="http://www.w3.org/2000/svg"
   xmlns:sodipodi="http://sodipodi.sourceforge.net/DTD/sodipodi-0.dtd"
   xmlns:inkscape="http://www.inkscape.org/namespaces/inkscape"
   width="210mm"
   height="297mm"
   viewBox="0 0 210 297"
   version="1.1"
   id="svg226"
   inkscape:version="0.92.4 5da689c313, 2019-01-14"
   sodipodi:docname="reproduciblebuildacryl.svg">
  <defs
     id="defs220" />
  <sodipodi:namedview
     id="base"
     pagecolor="#ffffff"
     bordercolor="#666666"
     borderopacity="1.0"
     inkscape:pageopacity="0.0"
     inkscape:pageshadow="2"
     inkscape:zoom="0.9775231"
     inkscape:cx="279.29271"
     inkscape:cy="723.679"
     inkscape:document-units="mm"
     inkscape:current-layer="layer1"
     showgrid="false"
     inkscape:window-width="1916"
     inkscape:window-height="1044"
     inkscape:window-x="0"
     inkscape:window-y="16"
     inkscape:window-maximized="0" />
  <metadata
     id="metadata223">
    <rdf:RDF>
      <cc:Work
         rdf:about="">
        <dc:format>image/svg+xml</dc:format>
        <dc:type
           rdf:resource="http://purl.org/dc/dcmitype/StillImage" />
        <dc:title />
      </cc:Work>
    </rdf:RDF>
  </metadata>
  <g
     inkscape:label="Layer 1"
     inkscape:groupmode="layer"
     id="layer1">
    <rect
       style="fill:#ffff00;fill-opacity:1;fill-rule:nonzero;stroke:#000000;stroke-width:0;stroke-miterlimit:4;stroke-dasharray:none;stroke-opacity:1"
       id="rect228"
       width="180"
       height="75"
       x="12.721354"
       y="25.648901" />
    <g
       id="g419"
       transform="matrix(-0.41023856,0,0,0.41023856,185.22135,42.11515)"
       style="fill:#1e5b96;fill-opacity:1">
      <g
         id="g379"
         style="fill:#1e5b96;fill-opacity:1">
        <g
           id="g377"
           style="fill:#1e5b96;fill-opacity:1">
          <g
             id="g26_25_"
             transform="rotate(90,40.7,44.8)"
             style="fill:#1e5b96;fill-opacity:1">
            <g
               id="circle2_25_"
               style="fill:#1e5b96;fill-opacity:1">
              <circle
                 cx="47.136002"
                 cy="-7.244"
                 r="9.8000002"
                 id="circle348"
                 style="fill:#1e5b96;fill-opacity:1" />
            </g>
            <g
               id="circle4_25_"
               style="fill:#1e5b96;fill-opacity:1">
              <circle
                 cx="47.207001"
                 cy="75.699997"
                 r="9.8000002"
                 id="circle351"
                 style="fill:#1e5b96;fill-opacity:1" />
            </g>
            <g
               id="circle6_25_"
               style="fill:#1e5b96;fill-opacity:1">
              <circle
                 cx="88.643997"
                 cy="34.264"
                 r="9.8000002"
                 id="circle354"
                 style="fill:#1e5b96;fill-opacity:1" />
            </g>
            <g
               id="circle8_25_"
               style="fill:#1e5b96;fill-opacity:1">
              <circle
                 cx="5.6999998"
                 cy="34.193001"
                 r="9.8000002"
                 id="circle357"
                 style="fill:#1e5b96;fill-opacity:1" />
            </g>
            <g
               id="g12_25_"
               style="fill:#1e5b96;fill-opacity:1">
              <g
                 id="polygon10_25_"
                 style="fill:#1e5b96;fill-opacity:1">
                <polygon
                   points="66.582,-3.92 66.582,11.919 50.743,11.919 61.561,22.738 77.401,22.738 77.401,6.899 "
                   id="polygon360"
                   style="fill:#1e5b96;fill-opacity:1" />
              </g>
            </g>
            <g
               id="g16_25_"
               style="fill:#1e5b96;fill-opacity:1">
              <g
                 id="polygon14_25_"
                 style="fill:#1e5b96;fill-opacity:1">
                <polygon
                   points="24.863,37.799 24.863,53.638 9.023,53.638 19.842,64.457 35.681,64.457 35.681,48.618 "
                   id="polygon364"
                   style="fill:#1e5b96;fill-opacity:1" />
              </g>
            </g>
            <g
               id="g20_25_"
               style="fill:#1e5b96;fill-opacity:1">
              <g
                 id="polygon18_25_"
                 style="fill:#1e5b96;fill-opacity:1">
                <polygon
                   points="50.672,56.537 66.582,56.467 66.511,72.377 77.33,61.558 77.401,45.648 61.491,45.719 "
                   id="polygon368"
                   style="fill:#1e5b96;fill-opacity:1" />
              </g>
            </g>
            <g
               id="g24_25_"
               style="fill:#1e5b96;fill-opacity:1">
              <g
                 id="polygon22_25_"
                 style="fill:#1e5b96;fill-opacity:1">
                <polygon
                   points="8.953,14.818 24.863,14.747 24.792,30.657 35.681,19.768 35.681,3.929 19.842,3.929 "
                   id="polygon372"
                   style="fill:#1e5b96;fill-opacity:1" />
              </g>
            </g>
          </g>
        </g>
      </g>
      <g
         id="g417"
         style="fill:#1e5b96;fill-opacity:1">
        <path
           d="m 124.629,11.171 h 15.273 c 8.271,0 10.998,4.889 10.998,10.293 0,3.713 -2.115,7.989 -6.393,9.493 L 150.9,44.07 h -7.145 L 137.6,31.803 h -6.627 V 44.07 h -6.344 c 0,0 0,-32.899 0,-32.899 z m 15.367,14.616 c 3.243,0 4.324,-2.067 4.324,-4.323 0,-2.068 -0.939,-4.277 -4.324,-4.277 h -9.023 v 8.601 z"
           id="path381"
           inkscape:connector-curvature="0"
           style="fill:#1e5b96;fill-opacity:1" />
        <path
           d="m 153.721,32.038 c 0,-7.755 4.371,-12.548 11.232,-12.548 5.922,0 10.621,3.618 10.621,11.326 0,0.939 0,2.303 -0.188,3.618 h -15.65 c 0.234,3.103 2.584,4.841 5.217,4.841 2.209,0 3.807,-0.752 5.17,-2.49 l 3.76,3.807 c -2.021,2.443 -4.936,4.042 -8.93,4.042 -6.956,0 -11.232,-4.7 -11.232,-12.596 z m 15.885,-2.772 c -0.376,-2.82 -2.209,-4.418 -4.652,-4.418 -2.867,0 -4.794,1.41 -5.17,4.418 0,0 9.822,0 9.822,0 z"
           id="path383"
           inkscape:connector-curvature="0"
           style="fill:#1e5b96;fill-opacity:1" />
        <path
           d="m 186.619,42.33 v 8.366 l -6.109,2.772 V 20.054 h 6.109 v 1.739 c 1.082,-1.363 2.773,-2.303 5.17,-2.303 5.922,0 9.916,4.464 9.916,12.595 0,7.896 -4.229,12.549 -9.963,12.549 -2.396,0 -4.041,-0.94 -5.123,-2.304 z m 8.977,-10.245 c 0,-4.042 -1.645,-6.721 -4.793,-6.721 -2.021,0 -3.29,0.752 -4.184,1.927 v 9.494 c 0.611,0.986 2.068,1.974 4.184,1.974 3.054,0 4.793,-2.396 4.793,-6.674 z"
           id="path385"
           inkscape:connector-curvature="0"
           style="fill:#1e5b96;fill-opacity:1" />
        <path
           d="m 206.877,20.054 h 6.109 v 2.115 c 0.705,-1.504 2.068,-2.679 4.465,-2.679 2.021,0 3.525,0.704 4.889,1.833 l -0.848,5.592 c -1.127,-0.799 -2.49,-1.409 -4.369,-1.409 -2.115,0 -4.137,1.033 -4.137,5.169 V 44.07 h -6.109 z"
           id="path387"
           inkscape:connector-curvature="0"
           style="fill:#1e5b96;fill-opacity:1" />
        <path
           d="m 223.984,32.085 c 0,-7.802 4.277,-12.595 11.045,-12.595 6.768,0 11.043,4.793 11.043,12.595 0,7.896 -4.275,12.549 -11.043,12.549 -6.768,0 -11.045,-4.653 -11.045,-12.549 z m 15.979,0 c 0,-4.183 -1.832,-6.721 -4.934,-6.721 -3.008,0 -4.936,2.538 -4.936,6.721 0,4.183 1.928,6.674 4.936,6.674 3.102,0 4.934,-2.491 4.934,-6.674 z"
           id="path389"
           inkscape:connector-curvature="0"
           style="fill:#1e5b96;fill-opacity:1" />
        <path
           d="m 250.068,32.038 c 0,-7.755 4.23,-12.548 9.965,-12.548 2.396,0 4.041,0.939 5.121,2.303 V 12.91 l 6.111,-2.772 V 44.07 h -6.111 v -1.74 c -0.986,1.457 -2.725,2.304 -5.168,2.304 -6.015,0 -9.918,-4.465 -9.918,-12.596 z m 15.086,4.794 v -9.493 c -0.656,-0.894 -2.066,-1.975 -4.182,-1.975 -3.055,0 -4.793,2.35 -4.793,6.674 0,4.136 1.645,6.721 4.793,6.721 2.022,0 3.29,-0.658 4.182,-1.927 z"
           id="path391"
           inkscape:connector-curvature="0"
           style="fill:#1e5b96;fill-opacity:1" />
        <path
           d="m 292.227,41.814 c -1.457,1.833 -3.666,2.82 -6.439,2.82 -4.088,0 -8.412,-2.304 -8.412,-9.447 V 20.054 h 6.109 v 13.159 c 0,3.854 1.316,5.546 4.184,5.546 2.914,0 4.559,-1.598 4.559,-5.452 V 20.054 h 6.109 V 44.07 h -6.109 v -2.256 z"
           id="path393"
           inkscape:connector-curvature="0"
           style="fill:#1e5b96;fill-opacity:1" />
        <path
           d="m 303.508,32.085 c 0,-7.802 4.324,-12.595 10.949,-12.595 4.889,0 8.461,2.161 10.012,7.049 l -5.828,1.927 c -0.705,-1.832 -2.115,-3.102 -4.041,-3.102 -2.961,0 -4.889,2.679 -4.889,6.721 0,4.089 1.928,6.674 4.746,6.674 2.068,0 3.525,-1.222 4.23,-3.478 l 5.828,1.738 c -1.457,5.076 -4.842,7.614 -10.059,7.614 -6.624,10e-4 -10.948,-4.652 -10.948,-12.548 z"
           id="path395"
           inkscape:connector-curvature="0"
           style="fill:#1e5b96;fill-opacity:1" />
        <path
           d="m 329.217,13.662 c 0,-1.974 1.598,-3.524 3.572,-3.524 2.02,0 3.57,1.551 3.57,3.524 0,1.973 -1.551,3.572 -3.57,3.572 -1.974,10e-4 -3.572,-1.598 -3.572,-3.572 z m 0.517,6.392 h 6.109 V 44.07 h -6.109 z"
           id="path397"
           inkscape:connector-curvature="0"
           style="fill:#1e5b96;fill-opacity:1" />
        <path
           d="m 348.346,42.33 v 1.739 h -6.111 V 12.911 l 6.111,-2.772 v 11.655 c 1.08,-1.363 2.725,-2.303 5.121,-2.303 5.734,0 9.965,4.793 9.965,12.548 0,8.131 -3.949,12.596 -10.199,12.596 -2.303,-10e-4 -3.807,-0.801 -4.887,-2.305 z m 8.976,-10.292 c 0,-4.324 -1.74,-6.674 -4.795,-6.674 -2.115,0 -3.525,1.034 -4.182,1.975 v 9.493 c 0.893,1.269 2.16,1.927 4.182,1.927 3.149,0 4.795,-2.585 4.795,-6.721 z"
           id="path399"
           inkscape:connector-curvature="0"
           style="fill:#1e5b96;fill-opacity:1" />
        <path
           d="m 368.836,13.004 6.109,-2.866 V 44.07 h -6.109 z"
           id="path401"
           inkscape:connector-curvature="0"
           style="fill:#1e5b96;fill-opacity:1" />
        <path
           d="m 380.352,32.038 c 0,-7.755 4.371,-12.548 11.232,-12.548 5.922,0 10.621,3.618 10.621,11.326 0,0.939 0,2.303 -0.188,3.618 h -15.65 c 0.234,3.103 2.584,4.841 5.217,4.841 2.209,0 3.807,-0.752 5.17,-2.49 l 3.76,3.807 c -2.021,2.443 -4.936,4.042 -8.93,4.042 -6.955,0 -11.232,-4.7 -11.232,-12.596 z m 15.884,-2.772 c -0.375,-2.82 -2.209,-4.418 -4.652,-4.418 -2.867,0 -4.795,1.41 -5.17,4.418 0,0 9.822,0 9.822,0 z"
           id="path403"
           inkscape:connector-curvature="0"
           style="fill:#1e5b96;fill-opacity:1" />
        <path
           d="m 138.517,52.869 c 9.297,0 12.209,5.152 12.209,10.36 0,3.584 -2.129,6.608 -5.769,8.176 4.536,1.4 7.168,4.928 7.168,9.408 0,5.32 -3.136,11.256 -12.712,11.256 h -14.784 v -39.2 c 0,0 13.888,0 13.888,0 z m 7.393,10.417 c 0,-2.855 -1.232,-5.991 -7.112,-5.991 h -9.296 v 12.207 h 8.064 c 5.543,-10e-4 8.344,-2.465 8.344,-6.216 z m 1.4,17.864 c 0,-3.752 -1.793,-7.224 -9.129,-7.224 h -8.68 v 13.663 h 10.473 c 5.768,0 7.336,-3.303 7.336,-6.439 z"
           id="path405"
           inkscape:connector-curvature="0"
           style="fill:#1e5b96;fill-opacity:1" />
        <path
           d="m 178.22,89.326 c -1.903,2.464 -4.199,3.416 -7.223,3.416 -6.721,0 -10.416,-3.584 -10.416,-12.768 V 63.453 h 4.871 v 17.248 c 0,5.433 2.633,7.504 6.16,7.504 3.752,0 6.607,-1.792 6.607,-7.392 v -17.36 h 4.873 V 92.07 h -4.873 v -2.744 z"
           id="path407"
           inkscape:connector-curvature="0"
           style="fill:#1e5b96;fill-opacity:1" />
        <path
           d="m 192.164,55.222 c 0,-1.736 1.345,-3.136 3.024,-3.136 1.736,0 3.08,1.399 3.08,3.136 0,1.68 -1.344,3.023 -3.08,3.023 -1.68,0 -3.024,-1.343 -3.024,-3.023 z m 0.617,8.231 h 4.871 V 92.07 h -4.871 z"
           id="path409"
           inkscape:connector-curvature="0"
           style="fill:#1e5b96;fill-opacity:1" />
        <path
           d="m 207.564,53.934 4.871,-2.296 V 92.07 h -4.871 z"
           id="path411"
           inkscape:connector-curvature="0"
           style="fill:#1e5b96;fill-opacity:1" />
        <path
           d="m 220.611,77.734 c 0,-9.408 4.705,-14.952 11.816,-14.952 3.359,0 5.6,1.232 7.225,2.688 V 53.934 l 4.871,-2.296 V 92.07 h -4.871 v -2.24 c -1.625,1.681 -3.809,2.912 -7.225,2.912 -7.279,0 -11.816,-5.768 -11.816,-15.008 z m 19.041,6.608 v -13.44 c -1.064,-1.68 -3.248,-3.64 -6.553,-3.64 -4.816,0 -7.561,3.752 -7.561,10.472 0,5.936 2.857,10.472 7.561,10.472 2.688,-0.001 5.096,-1.4 6.553,-3.864 z"
           id="path413"
           inkscape:connector-curvature="0"
           style="fill:#1e5b96;fill-opacity:1" />
        <path
           d="m 252.195,87.926 3.473,-2.969 c 1.455,1.568 3.92,3.416 7,3.416 3.023,0 5.32,-1.12 5.32,-3.64 0,-2.856 -3.193,-4.144 -6.553,-5.432 -5.264,-1.96 -8.848,-4.256 -8.848,-8.96 0,-4.704 4.145,-7.561 9.631,-7.561 4.369,0 7.561,1.849 9.633,4.313 l -3.359,2.8 c -1.232,-1.288 -3.248,-2.744 -6.328,-2.744 -2.912,0 -4.76,1.176 -4.76,3.192 0,2.407 2.855,3.472 6.047,4.76 5.209,1.848 9.297,4.088 9.297,9.52 0,5.152 -3.977,8.12 -10.193,8.12 -4.2,0.001 -8.12,-1.959 -10.36,-4.815 z"
           id="path415"
           inkscape:connector-curvature="0"
           style="fill:#1e5b96;fill-opacity:1" />
      </g>
    </g>
  </g>
</svg>
